<svg width="296" height="40" viewBox="0 0 296 40" fill="none" xmlns="http://www.w3.org/2000/svg">
<rect width="4" height="40" rx="2" fill="#FFCB29"/>
<rect x="8.34283" width="4" height="40" rx="2" fill="#FFCB29"/>
<rect x="16.6857" width="4" height="40" rx="2" fill="#FFCB29"/>
<rect x="25.0286" width="4" height="40" rx="2" fill="#FFCB29"/>
<rect x="33.3715" width="4" height="40" rx="2" fill="#FFCB29"/>
<rect x="41.7143" width="4" height="40" rx="2" fill="#FFCB29"/>
<rect x="50.0571" width="4" height="40" rx="2" fill="#FFCB29"/>
<rect x="58.4" width="4" height="40" rx="2" fill="#FFCB29"/>
<rect x="66.7429" width="4" height="40" rx="2" fill="#FFCB29"/>
<rect x="75.0857" width="4" height="40" rx="2" fill="#FFCB29"/>
<rect x="83.4286" width="4" height="40" rx="2" fill="#FFCB29"/>
<rect x="91.7714" width="4" height="40" rx="2" fill="#FFCB29"/>
<rect opacity="0.1" x="100.114" width="4" height="40" rx="2" fill="black"/>
<rect opacity="0.1" x="108.457" width="4" height="40" rx="2" fill="black"/>
<rect opacity="0.1" x="116.8" width="4" height="40" rx="2" fill="black"/>
<rect opacity="0.1" x="125.143" width="4" height="40" rx="2" fill="black"/>
<rect opacity="0.1" x="133.486" width="4" height="40" rx="2" fill="black"/>
<rect opacity="0.1" x="141.829" width="4" height="40" rx="2" fill="black"/>
<rect opacity="0.1" x="150.171" width="4" height="40" rx="2" fill="black"/>
<rect opacity="0.1" x="158.514" width="4" height="40" rx="2" fill="black"/>
<rect opacity="0.1" x="166.857" width="4" height="40" rx="2" fill="black"/>
<rect opacity="0.1" x="175.2" width="4" height="40" rx="2" fill="black"/>
<rect opacity="0.1" x="183.543" width="4" height="40" rx="2" fill="black"/>
<rect opacity="0.1" x="191.886" width="4" height="40" rx="2" fill="black"/>
<rect opacity="0.1" x="200.229" width="4" height="40" rx="2" fill="black"/>
<rect opacity="0.1" x="208.572" width="4" height="40" rx="2" fill="black"/>
<rect opacity="0.1" x="216.914" width="4" height="40" rx="2" fill="black"/>
<rect opacity="0.1" x="225.257" width="4" height="40" rx="2" fill="black"/>
<rect opacity="0.1" x="233.6" width="4" height="40" rx="2" fill="black"/>
<rect opacity="0.1" x="241.943" width="4" height="40" rx="2" fill="black"/>
<rect opacity="0.1" x="250.286" width="4" height="40" rx="2" fill="black"/>
<rect opacity="0.1" x="258.629" width="4" height="40" rx="2" fill="black"/>
<rect opacity="0.1" x="266.972" width="4" height="40" rx="2" fill="black"/>
<rect opacity="0.1" x="275.314" width="4" height="40" rx="2" fill="black"/>
<rect opacity="0.1" x="283.657" width="4" height="40" rx="2" fill="black"/>
<rect opacity="0.1" x="292" width="4" height="40" rx="2" fill="black"/>
</svg>
