<svg width="16" height="16" viewBox="0 0 16 16" fill="none" xmlns="http://www.w3.org/2000/svg">
<g clip-path="url(#clip0_47_2383)">
<path d="M2.66663 4.66668C2.66663 4.31305 2.8071 3.97392 3.05715 3.72387C3.3072 3.47382 3.64634 3.33334 3.99996 3.33334H12C12.3536 3.33334 12.6927 3.47382 12.9428 3.72387C13.1928 3.97392 13.3333 4.31305 13.3333 4.66668V12.6667C13.3333 13.0203 13.1928 13.3594 12.9428 13.6095C12.6927 13.8595 12.3536 14 12 14H3.99996C3.64634 14 3.3072 13.8595 3.05715 13.6095C2.8071 13.3594 2.66663 13.0203 2.66663 12.6667V4.66668Z" stroke="black" stroke-linecap="round" stroke-linejoin="round"/>
<path d="M10.6666 2V4.66667" stroke="black" stroke-linecap="round" stroke-linejoin="round"/>
<path d="M5.33337 2V4.66667" stroke="black" stroke-linecap="round" stroke-linejoin="round"/>
<path d="M2.66663 7.33334H13.3333" stroke="black" stroke-linecap="round" stroke-linejoin="round"/>
<path d="M4.66663 9.33334H4.67529" stroke="black" stroke-linecap="round" stroke-linejoin="round"/>
<path d="M6.67334 9.33334H6.67667" stroke="black" stroke-linecap="round" stroke-linejoin="round"/>
<path d="M8.67334 9.33334H8.67667" stroke="black" stroke-linecap="round" stroke-linejoin="round"/>
<path d="M10.6766 9.33334H10.68" stroke="black" stroke-linecap="round" stroke-linejoin="round"/>
<path d="M8.67664 11.3333H8.67997" stroke="black" stroke-linecap="round" stroke-linejoin="round"/>
<path d="M4.67334 11.3333H4.67667" stroke="black" stroke-linecap="round" stroke-linejoin="round"/>
<path d="M6.67334 11.3333H6.67667" stroke="black" stroke-linecap="round" stroke-linejoin="round"/>
</g>
<defs>
<clipPath id="clip0_47_2383">
<rect width="16" height="16" fill="white"/>
</clipPath>
</defs>
</svg>
