<svg width="100" height="24" viewBox="0 0 100 24" fill="none" xmlns="http://www.w3.org/2000/svg">
<rect x="0.5" y="0.5" width="99" height="23" rx="7.5" fill="#2BC205" fill-opacity="0.2"/>
<rect x="0.5" y="0.5" width="99" height="23" rx="7.5" stroke="#2BC205"/>
<g clip-path="url(#clip0_22_533)">
<path d="M16.35 10C16.2505 9.71762 16.0687 9.47148 15.8281 9.29327C15.5875 9.11505 15.2991 9.01292 15 9H13C12.6022 9 12.2206 9.15804 11.9393 9.43934C11.658 9.72064 11.5 10.1022 11.5 10.5C11.5 10.8978 11.658 11.2794 11.9393 11.5607C12.2206 11.842 12.6022 12 13 12H15C15.3978 12 15.7794 12.158 16.0607 12.4393C16.342 12.7206 16.5 13.1022 16.5 13.5C16.5 13.8978 16.342 14.2794 16.0607 14.5607C15.7794 14.842 15.3978 15 15 15H13C12.7009 14.9871 12.4125 14.8849 12.1719 14.7067C11.9313 14.5285 11.7495 14.2824 11.65 14" stroke="#2BC205" stroke-width="0.75" stroke-linecap="round" stroke-linejoin="round"/>
<path d="M14 7.5V9M14 15V16.5" stroke="#2BC205" stroke-width="0.75" stroke-linecap="round" stroke-linejoin="round"/>
</g>
<path d="M24.5895 16V14.892L27.1783 12.495C27.3984 12.282 27.5831 12.0902 27.7322 11.9197C27.8838 11.7493 27.9986 11.5824 28.0767 11.419C28.1548 11.2533 28.1939 11.0746 28.1939 10.8828C28.1939 10.6697 28.1454 10.4863 28.0483 10.3324C27.9512 10.1761 27.8187 10.0566 27.6506 9.97372C27.4825 9.88849 27.2919 9.84588 27.0788 9.84588C26.8563 9.84588 26.6622 9.89086 26.4964 9.98082C26.3307 10.0708 26.2029 10.1998 26.1129 10.3679C26.023 10.536 25.978 10.736 25.978 10.968H24.5185C24.5185 10.4922 24.6262 10.0791 24.8416 9.72869C25.0571 9.37831 25.3589 9.10724 25.7472 8.91548C26.1354 8.72372 26.5829 8.62784 27.0895 8.62784C27.6103 8.62784 28.0637 8.72017 28.4496 8.90483C28.8378 9.08712 29.1397 9.34044 29.3551 9.66477C29.5705 9.98911 29.6783 10.3608 29.6783 10.7798C29.6783 11.0545 29.6238 11.3255 29.5149 11.593C29.4084 11.8606 29.2178 12.1577 28.9432 12.4844C28.6686 12.8087 28.2815 13.1982 27.782 13.6527L26.7202 14.6932V14.7429H29.7741V16H24.5895ZM34.0446 16.0994C33.5427 16.0994 33.0952 16.0071 32.7022 15.8224C32.3116 15.6378 32.0015 15.3833 31.7718 15.0589C31.5422 14.7346 31.4226 14.3629 31.4132 13.9439H32.9047C32.9212 14.2256 33.0396 14.4541 33.2598 14.6293C33.4799 14.8045 33.7415 14.892 34.0446 14.892C34.286 14.892 34.4991 14.8388 34.6838 14.7322C34.8708 14.6233 35.0164 14.473 35.1206 14.2812C35.2271 14.0871 35.2804 13.8646 35.2804 13.6136C35.2804 13.358 35.2259 13.133 35.117 12.9389C35.0105 12.7448 34.8625 12.5933 34.6731 12.4844C34.4837 12.3755 34.2671 12.3198 34.0233 12.3175C33.8102 12.3175 33.603 12.3613 33.4018 12.4489C33.2029 12.5365 33.0479 12.656 32.9366 12.8075L31.5694 12.5625L31.9139 8.72727H36.3599V9.98438H33.1816L32.9934 11.8061H33.036C33.1639 11.6262 33.3568 11.477 33.6149 11.3587C33.8729 11.2403 34.1618 11.1811 34.4814 11.1811C34.9193 11.1811 35.31 11.2841 35.6532 11.4901C35.9965 11.696 36.2676 11.9789 36.4664 12.3388C36.6653 12.6963 36.7636 13.1082 36.7612 13.5746C36.7636 14.0646 36.6499 14.5002 36.4203 14.8814C36.193 15.2602 35.8746 15.5585 35.465 15.7763C35.0578 15.9917 34.5843 16.0994 34.0446 16.0994ZM38.3336 16V14.892L40.9224 12.495C41.1426 12.282 41.3272 12.0902 41.4764 11.9197C41.6279 11.7493 41.7427 11.5824 41.8208 11.419C41.899 11.2533 41.938 11.0746 41.938 10.8828C41.938 10.6697 41.8895 10.4863 41.7924 10.3324C41.6954 10.1761 41.5628 10.0566 41.3947 9.97372C41.2266 9.88849 41.036 9.84588 40.823 9.84588C40.6004 9.84588 40.4063 9.89086 40.2406 9.98082C40.0749 10.0708 39.947 10.1998 39.8571 10.3679C39.7671 10.536 39.7221 10.736 39.7221 10.968H38.2626C38.2626 10.4922 38.3703 10.0791 38.5858 9.72869C38.8012 9.37831 39.103 9.10724 39.4913 8.91548C39.8796 8.72372 40.327 8.62784 40.8336 8.62784C41.3545 8.62784 41.8078 8.72017 42.1937 8.90483C42.582 9.08712 42.8838 9.34044 43.0993 9.66477C43.3147 9.98911 43.4224 10.3608 43.4224 10.7798C43.4224 11.0545 43.368 11.3255 43.2591 11.593C43.1525 11.8606 42.9619 12.1577 42.6873 12.4844C42.4127 12.8087 42.0256 13.1982 41.5261 13.6527L40.4643 14.6932V14.7429H43.5183V16H38.3336ZM46.7908 15.0057L46.7518 15.3963C46.721 15.7088 46.6618 16.0201 46.5742 16.3303C46.489 16.6428 46.399 16.9257 46.3043 17.179C46.212 17.4323 46.1374 17.6312 46.0806 17.7756H45.1005C45.136 17.6359 45.1845 17.4406 45.2461 17.1896C45.3076 16.9411 45.3656 16.6617 45.4201 16.3516C45.4746 16.0414 45.5089 15.7254 45.5231 15.4034L45.5408 15.0057H46.7908ZM51.2184 16.1598C50.6076 16.1574 50.082 16.0071 49.6417 15.7088C49.2037 15.4105 48.8664 14.9785 48.6296 14.4126C48.3952 13.8468 48.2792 13.1662 48.2816 12.3707C48.2816 11.5777 48.3988 10.9018 48.6332 10.343C48.8699 9.78433 49.2073 9.35937 49.6452 9.06818C50.0856 8.77462 50.61 8.62784 51.2184 8.62784C51.8268 8.62784 52.35 8.77462 52.788 9.06818C53.2283 9.36174 53.5669 9.78788 53.8036 10.3466C54.0404 10.9029 54.1576 11.5777 54.1552 12.3707C54.1552 13.1686 54.0368 13.8504 53.8001 14.4162C53.5657 14.982 53.2295 15.4141 52.7915 15.7124C52.3536 16.0107 51.8292 16.1598 51.2184 16.1598ZM51.2184 14.8849C51.6351 14.8849 51.9677 14.6754 52.2163 14.2564C52.4648 13.8374 52.5879 13.2088 52.5856 12.3707C52.5856 11.8191 52.5288 11.3598 52.4151 10.9929C52.3039 10.6259 52.1452 10.3501 51.9393 10.1655C51.7357 9.98082 51.4954 9.88849 51.2184 9.88849C50.8041 9.88849 50.4727 10.0956 50.2241 10.5099C49.9755 10.9242 49.85 11.5445 49.8477 12.3707C49.8477 12.9295 49.9033 13.3958 50.0146 13.7699C50.1282 14.1416 50.288 14.4209 50.494 14.608C50.6999 14.7926 50.9414 14.8849 51.2184 14.8849ZM58.9157 8.72727V16H57.378V10.1868H57.3354L55.6699 11.2308V9.86719L57.4703 8.72727H58.9157ZM63.9957 16.1598C63.3849 16.1574 62.8594 16.0071 62.419 15.7088C61.9811 15.4105 61.6437 14.9785 61.407 14.4126C61.1726 13.8468 61.0566 13.1662 61.0589 12.3707C61.0589 11.5777 61.1761 10.9018 61.4105 10.343C61.6473 9.78433 61.9846 9.35937 62.4226 9.06818C62.8629 8.77462 63.3873 8.62784 63.9957 8.62784C64.6042 8.62784 65.1274 8.77462 65.5653 9.06818C66.0057 9.36174 66.3442 9.78788 66.581 10.3466C66.8177 10.9029 66.9349 11.5777 66.9325 12.3707C66.9325 13.1686 66.8142 13.8504 66.5774 14.4162C66.343 14.982 66.0069 15.4141 65.5689 15.7124C65.1309 16.0107 64.6065 16.1598 63.9957 16.1598ZM63.9957 14.8849C64.4124 14.8849 64.745 14.6754 64.9936 14.2564C65.2422 13.8374 65.3653 13.2088 65.3629 12.3707C65.3629 11.8191 65.3061 11.3598 65.1925 10.9929C65.0812 10.6259 64.9226 10.3501 64.7166 10.1655C64.513 9.98082 64.2727 9.88849 63.9957 9.88849C63.5814 9.88849 63.25 10.0956 63.0014 10.5099C62.7528 10.9242 62.6274 11.5445 62.625 12.3707C62.625 12.9295 62.6806 13.3958 62.7919 13.7699C62.9055 14.1416 63.0653 14.4209 63.2713 14.608C63.4773 14.7926 63.7188 14.8849 63.9957 14.8849ZM69.8944 15.0057L69.8553 15.3963C69.8245 15.7088 69.7653 16.0201 69.6777 16.3303C69.5925 16.6428 69.5025 16.9257 69.4078 17.179C69.3155 17.4323 69.2409 17.6312 69.1841 17.7756H68.204C68.2395 17.6359 68.2881 17.4406 68.3496 17.1896C68.4112 16.9411 68.4692 16.6617 68.5236 16.3516C68.5781 16.0414 68.6124 15.7254 68.6266 15.4034L68.6444 15.0057H69.8944ZM74.361 16.0994C73.8591 16.0994 73.4116 16.0071 73.0186 15.8224C72.628 15.6378 72.3179 15.3833 72.0882 15.0589C71.8586 14.7346 71.7391 14.3629 71.7296 13.9439H73.2211C73.2376 14.2256 73.356 14.4541 73.5762 14.6293C73.7963 14.8045 74.0579 14.892 74.361 14.892C74.6025 14.892 74.8155 14.8388 75.0002 14.7322C75.1872 14.6233 75.3328 14.473 75.437 14.2812C75.5435 14.0871 75.5968 13.8646 75.5968 13.6136C75.5968 13.358 75.5423 13.133 75.4334 12.9389C75.3269 12.7448 75.1789 12.5933 74.9895 12.4844C74.8001 12.3755 74.5835 12.3198 74.3397 12.3175C74.1266 12.3175 73.9194 12.3613 73.7182 12.4489C73.5194 12.5365 73.3643 12.656 73.253 12.8075L71.8858 12.5625L72.2303 8.72727H76.6763V9.98438H73.498L73.3098 11.8061H73.3525C73.4803 11.6262 73.6732 11.477 73.9313 11.3587C74.1893 11.2403 74.4782 11.1811 74.7978 11.1811C75.2357 11.1811 75.6264 11.2841 75.9696 11.4901C76.3129 11.696 76.584 11.9789 76.7828 12.3388C76.9817 12.6963 77.08 13.1082 77.0776 13.5746C77.08 14.0646 76.9663 14.5002 76.7367 14.8814C76.5094 15.2602 76.191 15.5585 75.7814 15.7763C75.3742 15.9917 74.9007 16.0994 74.361 16.0994ZM81.2814 8.62784C81.6555 8.62784 82.0153 8.69058 82.361 8.81605C82.709 8.94152 83.0191 9.14157 83.2914 9.41619C83.566 9.69081 83.7826 10.0554 83.9412 10.5099C84.1022 10.9621 84.1839 11.5173 84.1863 12.1754C84.1863 12.7933 84.1164 13.3449 83.9767 13.8303C83.8394 14.3132 83.6417 14.724 83.3837 15.0625C83.1257 15.401 82.8143 15.6591 82.4498 15.8366C82.0852 16.0118 81.678 16.0994 81.2282 16.0994C80.7428 16.0994 80.3143 16.0059 79.9426 15.8189C79.571 15.6295 79.2715 15.3726 79.0442 15.0483C78.8193 14.7216 78.6832 14.3546 78.6358 13.9474H80.1522C80.2114 14.2126 80.3356 14.4186 80.525 14.5653C80.7144 14.7098 80.9488 14.782 81.2282 14.782C81.7016 14.782 82.0615 14.576 82.3077 14.1641C82.5539 13.7498 82.6782 13.1828 82.6806 12.4631H82.6309C82.522 12.6761 82.3752 12.8596 82.1905 13.0135C82.0059 13.165 81.794 13.2822 81.5549 13.3651C81.3181 13.4479 81.066 13.4893 80.7985 13.4893C80.37 13.4893 79.9876 13.3887 79.6515 13.1875C79.3153 12.9863 79.0501 12.7093 78.856 12.3565C78.6619 12.0038 78.5648 11.6013 78.5648 11.1491C78.5624 10.6615 78.6749 10.227 78.9022 9.84588C79.1294 9.46473 79.4467 9.16643 79.8539 8.95099C80.2634 8.73319 80.7393 8.62547 81.2814 8.62784ZM81.2921 9.83523C81.053 9.83523 80.8399 9.89205 80.6529 10.0057C80.4682 10.1193 80.3214 10.272 80.2125 10.4638C80.106 10.6555 80.0539 10.8698 80.0563 11.1065C80.0563 11.3456 80.1084 11.5611 80.2125 11.7528C80.3191 11.9422 80.4635 12.0937 80.6458 12.2074C80.8304 12.3187 81.0411 12.3743 81.2779 12.3743C81.4554 12.3743 81.62 12.3411 81.7715 12.2749C81.923 12.2086 82.0544 12.1174 82.1657 12.0014C82.2793 11.883 82.3681 11.7469 82.432 11.593C82.4959 11.4392 82.5279 11.2758 82.5279 11.103C82.5255 10.8733 82.4711 10.6626 82.3645 10.4709C82.258 10.2791 82.1112 10.1252 81.9242 10.0092C81.7372 9.89323 81.5265 9.83523 81.2921 9.83523ZM88.4398 16.0994C87.9095 16.0994 87.4372 16.0083 87.0229 15.826C86.611 15.6413 86.2855 15.388 86.0463 15.0661C85.8096 14.7417 85.6877 14.3677 85.6806 13.9439H87.2289C87.2383 14.1214 87.2963 14.2777 87.4029 14.4126C87.5118 14.5452 87.6562 14.6482 87.8361 14.7216C88.016 14.795 88.2185 14.8317 88.4434 14.8317C88.6777 14.8317 88.8849 14.7902 89.0648 14.7074C89.2447 14.6245 89.3856 14.5097 89.4874 14.3629C89.5892 14.2161 89.6401 14.0469 89.6401 13.8551C89.6401 13.661 89.5856 13.4893 89.4767 13.3402C89.3702 13.1887 89.2163 13.0703 89.0151 12.9851C88.8162 12.8999 88.5795 12.8572 88.3049 12.8572H87.6266V11.728H88.3049C88.5369 11.728 88.7417 11.6877 88.9192 11.6072C89.0991 11.5268 89.2388 11.4155 89.3382 11.2734C89.4377 11.129 89.4874 10.9609 89.4874 10.7692C89.4874 10.5869 89.4436 10.4271 89.356 10.2898C89.2708 10.1501 89.15 10.0412 88.9938 9.96307C88.8399 9.88494 88.66 9.84588 88.454 9.84588C88.2457 9.84588 88.0551 9.88376 87.8823 9.95952C87.7095 10.0329 87.571 10.1383 87.4668 10.2756C87.3626 10.4129 87.307 10.5739 87.2999 10.7585H85.8262C85.8333 10.3395 85.9528 9.97017 86.1848 9.65057C86.4168 9.33097 86.7293 9.0812 87.1223 8.90128C87.5177 8.71899 87.964 8.62784 88.4611 8.62784C88.963 8.62784 89.4022 8.71899 89.7786 8.90128C90.155 9.08357 90.4474 9.32978 90.6557 9.63991C90.8664 9.94768 90.9706 10.2933 90.9682 10.6768C90.9706 11.084 90.8439 11.4238 90.5882 11.696C90.3349 11.9683 90.0047 12.1411 89.5975 12.2145V12.2713C90.1325 12.34 90.5397 12.5258 90.8191 12.8288C91.1008 13.1295 91.2405 13.5059 91.2381 13.9581C91.2405 14.3724 91.1209 14.7405 90.8794 15.0625C90.6403 15.3845 90.3101 15.6378 89.8887 15.8224C89.4673 16.0071 88.9843 16.0994 88.4398 16.0994Z" fill="#2BC205"/>
<defs>
<clipPath id="clip0_22_533">
<rect width="12" height="12" fill="white" transform="translate(8 6)"/>
</clipPath>
</defs>
</svg>
