<svg width="12" height="12" viewBox="0 0 12 12" fill="none" xmlns="http://www.w3.org/2000/svg">
<g clip-path="url(#clip0_22_553)">
<path d="M9 2C9.07528 2 9.14958 2.017 9.21737 2.04972C9.28516 2.08245 9.34468 2.13006 9.3915 2.189L9.4285 2.243L10.9285 4.743C10.9776 4.82498 11.0022 4.91932 10.9994 5.01484C10.9966 5.11037 10.9664 5.20308 10.9125 5.282L10.8725 5.3335L6.6075 10.1C6.52831 10.1808 6.43378 10.245 6.32946 10.2888C6.22515 10.3325 6.11314 10.3551 6 10.355C5.8 10.355 5.6075 10.285 5.445 10.1465L5.3775 10.0835L1.1275 5.3335C1.06356 5.26216 1.02147 5.17395 1.00622 5.07937C0.990974 4.98479 1.00322 4.88782 1.0415 4.8L1.0715 4.7425L2.578 2.2315L2.61 2.1865C2.63289 2.15803 2.65888 2.1322 2.6875 2.1095L2.732 2.0775L2.776 2.0525L2.801 2.041L2.831 2.0285L2.8855 2.0125L2.9415 2.0025L3 2H9ZM4.557 3.9715C4.44333 3.90343 4.3073 3.88326 4.17877 3.91541C4.05024 3.94757 3.93972 4.02942 3.8715 4.143L3.5715 4.643L3.5415 4.701C3.50323 4.78924 3.49123 4.88665 3.50692 4.98154C3.52262 5.07643 3.56536 5.16478 3.63 5.236L4.63 6.336L4.675 6.38C4.76756 6.4592 4.88584 6.50189 5.00764 6.50005C5.12944 6.49821 5.24638 6.45196 5.3365 6.37L5.38 6.325C5.4592 6.23245 5.50189 6.11416 5.50005 5.99236C5.49821 5.87056 5.45196 5.75362 5.37 5.6635L4.6195 4.8385L4.7285 4.657L4.756 4.6055C4.80625 4.49379 4.81374 4.36753 4.77706 4.25066C4.74038 4.13379 4.66207 4.03446 4.557 3.9715Z" fill="#51AEF1"/>
</g>
<defs>
<clipPath id="clip0_22_553">
<rect width="12" height="12" fill="white"/>
</clipPath>
</defs>
</svg>
