<svg width="12" height="12" viewBox="0 0 12 12" fill="none" xmlns="http://www.w3.org/2000/svg">
<g clip-path="url(#clip0_22_513)">
<path d="M1.75 4.75C1.75 4.88261 1.80268 5.00979 1.89645 5.10355C1.99021 5.19732 2.11739 5.25 2.25 5.25C2.38261 5.25 2.50979 5.19732 2.60355 5.10355C2.69732 5.00979 2.75 4.88261 2.75 4.75C2.75 4.61739 2.69732 4.49021 2.60355 4.39645C2.50979 4.30268 2.38261 4.25 2.25 4.25C2.11739 4.25 1.99021 4.30268 1.89645 4.39645C1.80268 4.49021 1.75 4.61739 1.75 4.75Z" stroke="#C2A926" stroke-width="0.75" stroke-linecap="round" stroke-linejoin="round"/>
<path d="M4.25 2.25C4.25 2.38261 4.30268 2.50979 4.39645 2.60355C4.49021 2.69732 4.61739 2.75 4.75 2.75C4.88261 2.75 5.00979 2.69732 5.10355 2.60355C5.19732 2.50979 5.25 2.38261 5.25 2.25C5.25 2.11739 5.19732 1.99021 5.10355 1.89645C5.00979 1.80268 4.88261 1.75 4.75 1.75C4.61739 1.75 4.49021 1.80268 4.39645 1.89645C4.30268 1.99021 4.25 2.11739 4.25 2.25Z" stroke="#C2A926" stroke-width="0.75" stroke-linecap="round" stroke-linejoin="round"/>
<path d="M4.25 7.25C4.25 7.38261 4.30268 7.50979 4.39645 7.60355C4.49021 7.69732 4.61739 7.75 4.75 7.75C4.88261 7.75 5.00979 7.69732 5.10355 7.60355C5.19732 7.50979 5.25 7.38261 5.25 7.25C5.25 7.11739 5.19732 6.99021 5.10355 6.89645C5.00979 6.80268 4.88261 6.75 4.75 6.75C4.61739 6.75 4.49021 6.80268 4.39645 6.89645C4.30268 6.99021 4.25 7.11739 4.25 7.25Z" stroke="#C2A926" stroke-width="0.75" stroke-linecap="round" stroke-linejoin="round"/>
<path d="M1.75 9.75C1.75 9.88261 1.80268 10.0098 1.89645 10.1036C1.99021 10.1973 2.11739 10.25 2.25 10.25C2.38261 10.25 2.50979 10.1973 2.60355 10.1036C2.69732 10.0098 2.75 9.88261 2.75 9.75C2.75 9.61739 2.69732 9.49021 2.60355 9.39645C2.50979 9.30268 2.38261 9.25 2.25 9.25C2.11739 9.25 1.99021 9.30268 1.89645 9.39645C1.80268 9.49021 1.75 9.61739 1.75 9.75Z" stroke="#C2A926" stroke-width="0.75" stroke-linecap="round" stroke-linejoin="round"/>
<path d="M6.75 4.75C6.75 4.88261 6.80268 5.00979 6.89645 5.10355C6.99021 5.19732 7.11739 5.25 7.25 5.25C7.38261 5.25 7.50979 5.19732 7.60355 5.10355C7.69732 5.00979 7.75 4.88261 7.75 4.75C7.75 4.61739 7.69732 4.49021 7.60355 4.39645C7.50979 4.30268 7.38261 4.25 7.25 4.25C7.11739 4.25 6.99021 4.30268 6.89645 4.39645C6.80268 4.49021 6.75 4.61739 6.75 4.75Z" stroke="#C2A926" stroke-width="0.75" stroke-linecap="round" stroke-linejoin="round"/>
<path d="M9.25 2.25C9.25 2.38261 9.30268 2.50979 9.39645 2.60355C9.49021 2.69732 9.61739 2.75 9.75 2.75C9.88261 2.75 10.0098 2.69732 10.1036 2.60355C10.1973 2.50979 10.25 2.38261 10.25 2.25C10.25 2.11739 10.1973 1.99021 10.1036 1.89645C10.0098 1.80268 9.88261 1.75 9.75 1.75C9.61739 1.75 9.49021 1.80268 9.39645 1.89645C9.30268 1.99021 9.25 2.11739 9.25 2.25Z" stroke="#C2A926" stroke-width="0.75" stroke-linecap="round" stroke-linejoin="round"/>
<path d="M6.75 9.75C6.75 9.88261 6.80268 10.0098 6.89645 10.1036C6.99021 10.1973 7.11739 10.25 7.25 10.25C7.38261 10.25 7.50979 10.1973 7.60355 10.1036C7.69732 10.0098 7.75 9.88261 7.75 9.75C7.75 9.61739 7.69732 9.49021 7.60355 9.39645C7.50979 9.30268 7.38261 9.25 7.25 9.25C7.11739 9.25 6.99021 9.30268 6.89645 9.39645C6.80268 9.49021 6.75 9.61739 6.75 9.75Z" stroke="#C2A926" stroke-width="0.75" stroke-linecap="round" stroke-linejoin="round"/>
<path d="M9.25 7.25C9.25 7.38261 9.30268 7.50979 9.39645 7.60355C9.49021 7.69732 9.61739 7.75 9.75 7.75C9.88261 7.75 10.0098 7.69732 10.1036 7.60355C10.1973 7.50979 10.25 7.38261 10.25 7.25C10.25 7.11739 10.1973 6.99021 10.1036 6.89645C10.0098 6.80268 9.88261 6.75 9.75 6.75C9.61739 6.75 9.49021 6.80268 9.39645 6.89645C9.30268 6.99021 9.25 7.11739 9.25 7.25Z" stroke="#C2A926" stroke-width="0.75" stroke-linecap="round" stroke-linejoin="round"/>
</g>
<defs>
<clipPath id="clip0_22_513">
<rect width="12" height="12" fill="white"/>
</clipPath>
</defs>
</svg>
