<svg width="12" height="12" viewBox="0 0 12 12" fill="none" xmlns="http://www.w3.org/2000/svg">
<g clip-path="url(#clip0_22_542)">
<path d="M6.5 10.5H3.5C3.23478 10.5 2.98043 10.3946 2.79289 10.2071C2.60536 10.0196 2.5 9.76522 2.5 9.5V6.5C2.5 6.23478 2.60536 5.98043 2.79289 5.79289C2.98043 5.60536 3.23478 5.5 3.5 5.5H8.5" stroke="#2BC205" stroke-width="0.75" stroke-linecap="round" stroke-linejoin="round"/>
<path d="M5.5 8C5.5 8.13261 5.55268 8.25979 5.64645 8.35355C5.74021 8.44732 5.86739 8.5 6 8.5C6.13261 8.5 6.25979 8.44732 6.35355 8.35355C6.44732 8.25979 6.5 8.13261 6.5 8C6.5 7.86739 6.44732 7.74021 6.35355 7.64645C6.25979 7.55268 6.13261 7.5 6 7.5C5.86739 7.5 5.74021 7.55268 5.64645 7.64645C5.55268 7.74021 5.5 7.86739 5.5 8Z" stroke="#2BC205" stroke-width="0.75" stroke-linecap="round" stroke-linejoin="round"/>
<path d="M4 5.5V3.5C4 2.96957 4.21071 2.46086 4.58579 2.08579C4.96086 1.71071 5.46957 1.5 6 1.5C6.53043 1.5 7.03914 1.71071 7.41421 2.08579C7.78929 2.46086 8 2.96957 8 3.5V5.5" stroke="#2BC205" stroke-width="0.75" stroke-linecap="round" stroke-linejoin="round"/>
<path d="M10.5 7.5H9.25C9.05109 7.5 8.86032 7.57902 8.71967 7.71967C8.57902 7.86032 8.5 8.05109 8.5 8.25C8.5 8.44891 8.57902 8.63968 8.71967 8.78033C8.86032 8.92098 9.05109 9 9.25 9H9.75C9.94891 9 10.1397 9.07902 10.2803 9.21967C10.421 9.36032 10.5 9.55109 10.5 9.75C10.5 9.94891 10.421 10.1397 10.2803 10.2803C10.1397 10.421 9.94891 10.5 9.75 10.5H8.5" stroke="#2BC205" stroke-width="0.75" stroke-linecap="round" stroke-linejoin="round"/>
<path d="M9.5 10.5V11M9.5 7V7.5" stroke="#2BC205" stroke-width="0.75" stroke-linecap="round" stroke-linejoin="round"/>
</g>
<defs>
<clipPath id="clip0_22_542">
<rect width="12" height="12" fill="white"/>
</clipPath>
</defs>
</svg>
