<svg width="16" height="16" viewBox="0 0 16 16" fill="none" xmlns="http://www.w3.org/2000/svg">
<g clip-path="url(#clip0_47_2372)">
<path d="M3.33337 8.66667C3.33337 9.2795 3.45408 9.88634 3.6886 10.4525C3.92312 11.0187 4.26687 11.5332 4.70021 11.9665C5.13355 12.3998 5.648 12.7436 6.21418 12.9781C6.78037 13.2126 7.38721 13.3333 8.00004 13.3333C8.61288 13.3333 9.21971 13.2126 9.7859 12.9781C10.3521 12.7436 10.8665 12.3998 11.2999 11.9665C11.7332 11.5332 12.077 11.0187 12.3115 10.4525C12.546 9.88634 12.6667 9.2795 12.6667 8.66667C12.6667 8.05383 12.546 7.447 12.3115 6.88081C12.077 6.31462 11.7332 5.80018 11.2999 5.36684C10.8665 4.9335 10.3521 4.58975 9.7859 4.35523C9.21971 4.12071 8.61288 4 8.00004 4C7.38721 4 6.78037 4.12071 6.21418 4.35523C5.648 4.58975 5.13355 4.9335 4.70021 5.36684C4.26687 5.80018 3.92312 6.31462 3.6886 6.88081C3.45408 7.447 3.33337 8.05383 3.33337 8.66667Z" stroke="#FFCB29" stroke-linecap="round" stroke-linejoin="round"/>
<path d="M8 6.66666V8.66666H9.33333" stroke="#FFCB29" stroke-linecap="round" stroke-linejoin="round"/>
<path d="M4.66671 2.66666L2.83337 3.99999" stroke="#FFCB29" stroke-linecap="round" stroke-linejoin="round"/>
<path d="M11.3334 2.66666L13.1667 3.99999" stroke="#FFCB29" stroke-linecap="round" stroke-linejoin="round"/>
</g>
<defs>
<clipPath id="clip0_47_2372">
<rect width="16" height="16" fill="white"/>
</clipPath>
</defs>
</svg>
