<svg width="16" height="16" viewBox="0 0 16 16" fill="none" xmlns="http://www.w3.org/2000/svg">
<g clip-path="url(#clip0_47_2957)">
<path d="M8 3.99999C8 4.35361 8.14048 4.69275 8.39052 4.9428C8.64057 5.19285 8.97971 5.33332 9.33333 5.33332C9.68696 5.33332 10.0261 5.19285 10.2761 4.9428C10.5262 4.69275 10.6667 4.35361 10.6667 3.99999C10.6667 3.64637 10.5262 3.30723 10.2761 3.05718C10.0261 2.80713 9.68696 2.66666 9.33333 2.66666C8.97971 2.66666 8.64057 2.80713 8.39052 3.05718C8.14048 3.30723 8 3.64637 8 3.99999Z" stroke="black" stroke-linecap="round" stroke-linejoin="round"/>
<path d="M2.66663 4H7.99996" stroke="black" stroke-linecap="round" stroke-linejoin="round"/>
<path d="M10.6666 4H13.3333" stroke="black" stroke-linecap="round" stroke-linejoin="round"/>
<path d="M4 7.99999C4 8.35361 4.14048 8.69275 4.39052 8.9428C4.64057 9.19285 4.97971 9.33332 5.33333 9.33332C5.68696 9.33332 6.02609 9.19285 6.27614 8.9428C6.52619 8.69275 6.66667 8.35361 6.66667 7.99999C6.66667 7.64637 6.52619 7.30723 6.27614 7.05718C6.02609 6.80713 5.68696 6.66666 5.33333 6.66666C4.97971 6.66666 4.64057 6.80713 4.39052 7.05718C4.14048 7.30723 4 7.64637 4 7.99999Z" stroke="black" stroke-linecap="round" stroke-linejoin="round"/>
<path d="M2.66663 8H3.99996" stroke="black" stroke-linecap="round" stroke-linejoin="round"/>
<path d="M6.66663 8H13.3333" stroke="black" stroke-linecap="round" stroke-linejoin="round"/>
<path d="M10 12C10 12.3536 10.1405 12.6928 10.3905 12.9428C10.6406 13.1928 10.9797 13.3333 11.3333 13.3333C11.687 13.3333 12.0261 13.1928 12.2761 12.9428C12.5262 12.6928 12.6667 12.3536 12.6667 12C12.6667 11.6464 12.5262 11.3072 12.2761 11.0572C12.0261 10.8071 11.687 10.6667 11.3333 10.6667C10.9797 10.6667 10.6406 10.8071 10.3905 11.0572C10.1405 11.3072 10 11.6464 10 12Z" stroke="black" stroke-linecap="round" stroke-linejoin="round"/>
<path d="M2.66663 12H9.99996" stroke="black" stroke-linecap="round" stroke-linejoin="round"/>
<path d="M12.6666 12H13.3333" stroke="black" stroke-linecap="round" stroke-linejoin="round"/>
</g>
<defs>
<clipPath id="clip0_47_2957">
<rect width="16" height="16" fill="white"/>
</clipPath>
</defs>
</svg>
