<svg width="12" height="11" viewBox="0 0 12 11" fill="none" xmlns="http://www.w3.org/2000/svg">
<path d="M4.12151 3.66999L0.931505 4.13249L0.875005 4.14399C0.789475 4.1667 0.711502 4.2117 0.649051 4.27439C0.5866 4.33709 0.541907 4.41524 0.519536 4.50085C0.497165 4.58647 0.497919 4.6765 0.521719 4.76173C0.545519 4.84696 0.591513 4.92435 0.655005 4.98599L2.96601 7.23549L2.42101 10.413L2.41451 10.468C2.40927 10.5565 2.42764 10.6447 2.46773 10.7237C2.50782 10.8028 2.5682 10.8697 2.64267 10.9177C2.71715 10.9658 2.80305 10.9931 2.89158 10.997C2.98011 11.001 3.06809 10.9813 3.14651 10.94L5.99951 9.43999L8.846 10.94L8.896 10.963C8.97854 10.9955 9.06823 11.0055 9.15588 10.9919C9.24354 10.9783 9.326 10.9416 9.3948 10.8856C9.46361 10.8296 9.51628 10.7564 9.54742 10.6733C9.57856 10.5903 9.58705 10.5004 9.572 10.413L9.0265 7.23549L11.3385 4.98549L11.3775 4.94299C11.4332 4.87438 11.4697 4.79222 11.4834 4.70489C11.497 4.61756 11.4872 4.52818 11.455 4.44586C11.4229 4.36353 11.3695 4.29121 11.3002 4.23625C11.231 4.18129 11.1485 4.14566 11.061 4.13299L7.87101 3.66999L6.44501 0.779992C6.40374 0.696259 6.33986 0.625749 6.2606 0.576444C6.18134 0.527139 6.08985 0.501007 5.99651 0.501007C5.90316 0.501007 5.81167 0.527139 5.73241 0.576444C5.65315 0.625749 5.58927 0.696259 5.54801 0.779992L4.12151 3.66999Z" fill="black"/>
</svg>
