<svg width="12" height="11" viewBox="0 0 12 11" fill="none" xmlns="http://www.w3.org/2000/svg">
<path d="M4.1215 3.67002L0.931499 4.13252L0.874999 4.14402C0.789469 4.16673 0.711497 4.21173 0.649045 4.27442C0.586594 4.33712 0.541901 4.41527 0.51953 4.50089C0.49716 4.5865 0.497913 4.67653 0.521713 4.76176C0.545513 4.84699 0.591508 4.92438 0.654999 4.98602L2.966 7.23552L2.421 10.413L2.4145 10.468C2.40926 10.5565 2.42763 10.6447 2.46772 10.7238C2.50782 10.8028 2.56819 10.8698 2.64267 10.9178C2.71714 10.9658 2.80304 10.9932 2.89157 10.9971C2.9801 11.001 3.06808 10.9813 3.1465 10.94L5.9995 9.44002L8.846 10.94L8.896 10.963C8.97853 10.9955 9.06822 11.0055 9.15588 10.9919C9.24353 10.9783 9.32599 10.9416 9.3948 10.8857C9.4636 10.8297 9.51628 10.7564 9.54742 10.6733C9.57856 10.5903 9.58704 10.5004 9.572 10.413L9.0265 7.23552L11.3385 4.98552L11.3775 4.94302C11.4332 4.87441 11.4697 4.79225 11.4834 4.70492C11.497 4.61759 11.4872 4.52821 11.455 4.44589C11.4229 4.36356 11.3695 4.29124 11.3002 4.23628C11.231 4.18132 11.1485 4.14569 11.061 4.13302L7.871 3.67002L6.445 0.780022C6.40374 0.69629 6.33986 0.62578 6.26059 0.576475C6.18133 0.527169 6.08985 0.501038 5.9965 0.501038C5.90315 0.501038 5.81167 0.527169 5.7324 0.576475C5.65314 0.62578 5.58926 0.69629 5.548 0.780022L4.1215 3.67002Z" fill="black"/>
</svg>
